# xmcd
#
# Track frame offsets: 
#        187
#        21457
#        40775
#        66117
#        94187
#        122095
#        145472
#        171002
#        204032
#        223835
#
# Disc length: 3285 seconds
#
# Revision: 0
# Processed by: cddbd v1.5.1PL0 Copyright (c) Steve Scherf et al.
# Submitted via: ExactAudioCopy v0.95a5
#
DISCID=900cd30a
DTITLE=Various Artist - URBAN AFRICA
DYEAR=1990
DGENRE=Altinative
TTITLE0=UMQOMBOTHI
TTITLE1=TOGETHER AS ONE
TTITLE2=KAZET
TTITLE3=SHARP AS A RAZOR
TTITLE4=WE MISS YOU MANDELA
TTITLE5=MELODI YALLA
TTITLE6=WHISPERS IN THE DEEP
TTITLE7=SLAVE
TTITLE8=WAYA WAYA ALL THE WAY DOWN
TTITLE9=AFRICAN SALAD
EXTD=
EXTT0=
EXTT1=
EXTT2=
EXTT3=
EXTT4=
EXTT5=
EXTT6=
EXTT7=
EXTT8=
EXTT9=
PLAYORDER=
